<?xml version="1.0" encoding="utf-8"?>
<!-- Generator: Adobe Illustrator 20.1.0, SVG Export Plug-In . SVG Version: 6.00 Build 0)  -->
<svg version="1.1" id="Layer_1" xmlns="http://www.w3.org/2000/svg" xmlns:xlink="http://www.w3.org/1999/xlink" x="0px" y="0px"
	 viewBox="0 0 595.3 595.3" style="enable-background:new 0 0 595.3 595.3;" xml:space="preserve">
<style type="text/css">
	.st0{fill:#FFFFFF;}
</style>
<g>
	<g>
		<g>
			<path class="st0" d="M298.3,87c-3.8,0-7.6-1-10.9-2.9l-60.5-34.9c-1.6-0.9-1.8-2.5-1.8-3.1c0-0.6,0.2-2.2,1.8-3.1l59-34
				c4-2.3,8.5-3.5,13-3.5c4.6,0,9.1,1.2,13,3.5l58.4,33.7c1.6,0.9,1.8,2.5,1.8,3.1c0,0.6-0.2,2.2-1.8,3.1l-61.1,35.2
				C305.9,86,302.1,87,298.3,87z"/>
		</g>
		<g>
			<path class="st0" d="M462.2,489.7c-0.6,0-1.2-0.2-1.8-0.5L395,451.4c-3.7-2.2-6.1-6.2-6.1-10.5v-75.5c0-2.2,1.9-3.6,3.6-3.6
				c0.6,0,1.2,0.2,1.8,0.5l65,37.5c4,2.3,6.5,6.6,6.5,11.2v75C465.8,488.3,463.9,489.7,462.2,489.7z"/>
			<path class="st0" d="M478.9,489.7c-1.7,0-3.6-1.4-3.6-3.6v-75c0-4.6,2.5-8.9,6.5-11.2l65.5-37.8c0.6-0.3,1.2-0.5,1.8-0.5
				c1.7,0,3.6,1.4,3.6,3.6v75.5c0,4.3-2.3,8.4-6.1,10.5l-65.9,38.1C480.1,489.5,479.5,489.7,478.9,489.7z"/>
		</g>
		<g>
			<path class="st0" d="M462.3,386.8c-0.6,0-1.2-0.2-1.8-0.5l-65.4-37.8c-3.7-2.2-6.1-6.2-6.1-10.5v-75.5c0-2.2,1.9-3.6,3.6-3.6
				c0.6,0,1.2,0.2,1.8,0.5l65,37.5c4,2.3,6.5,6.6,6.5,11.2v75C465.9,385.4,464,386.8,462.3,386.8z"/>
			<path class="st0" d="M479,386.8c-1.7,0-3.6-1.4-3.6-3.6v-75c0-4.6,2.5-8.9,6.5-11.2l65.5-37.8c0.6-0.3,1.2-0.5,1.8-0.5
				c1.7,0,3.6,1.4,3.6,3.6v75.5c0,4.3-2.3,8.4-6.1,10.5l-65.9,38.1C480.2,386.6,479.6,386.8,479,386.8z"/>
		</g>
		<path class="st0" d="M107.2,442.9l-13.2-21.5l-29.2,28.3l-9.1-9.4l41-39.6l12.6,20.6l10.1-11c-0.3-4.3-2.7-8.3-6.5-10.4l-65-37.5
			c-0.6-0.3-1.2-0.5-1.8-0.5c-1.7,0-3.6,1.4-3.6,3.6v75.5c0,4.3,2.3,8.4,6.1,10.5l65.4,37.8c0.6,0.3,1.2,0.5,1.8,0.5
			c1.7,0,3.6-1.4,3.6-3.6v-56.5L107.2,442.9z"/>
		<g>
			<path class="st0" d="M211.5,137c-3.8,0-7.6-1-10.9-2.9l-60.5-34.9c-1.6-0.9-1.8-2.5-1.8-3.1s0.2-2.2,1.8-3.1l59-34
				c4-2.3,8.5-3.5,13-3.5c4.6,0,9.1,1.2,13,3.5l58.4,33.7c1.6,0.9,1.8,2.5,1.8,3.1s-0.2,2.2-1.8,3.1l-61.1,35.2
				C219.2,136,215.4,137,211.5,137z"/>
			<path class="st0" d="M290.1,106.5c-0.6,0-1.2,0.2-1.8,0.5l-65.5,37.8c-0.5,0.3-1,0.8-1.5,1.1l72.2,41.7c0.1-0.7,0.3-1.3,0.3-2
				v-75.5C293.7,107.9,291.8,106.5,290.1,106.5z"/>
		</g>
		<g>
			<path class="st0" d="M377.1,236.1c-0.6,0-1.2-0.2-1.8-0.5l-65.4-37.8c-3.7-2.2-6.1-6.2-6.1-10.5v-75.5c0-2.2,1.9-3.6,3.6-3.6
				c0.6,0,1.2,0.2,1.8,0.5l65,37.5c4,2.3,6.5,6.6,6.5,11.2v75C380.7,234.7,378.8,236.1,377.1,236.1z"/>
			<path class="st0" d="M385.4,138.4c-3.8,0-7.6-1-10.9-2.9L314,100.5c-1.6-0.9-1.8-2.5-1.8-3.1s0.2-2.2,1.8-3.1l59-34
				c4-2.3,8.5-3.5,13-3.5c4.6,0,9.1,1.2,13,3.5L457.4,94c1.6,0.9,1.8,2.5,1.8,3.1s-0.2,2.2-1.8,3.1l-61.1,35.2
				C393,137.4,389.3,138.4,385.4,138.4z"/>
		</g>
		<g>
			<path class="st0" d="M124.1,187.4c-3.8,0-7.6-1-10.9-2.9l-60.5-34.9c-1.6-0.9-1.8-2.5-1.8-3.1s0.2-2.2,1.8-3.1l59-34
				c4-2.3,8.5-3.5,13-3.5c4.6,0,9.1,1.2,13,3.5l58.4,33.7c1.6,0.9,1.8,2.5,1.8,3.1c0,0.6-0.2,2.2-1.8,3.1l-61.1,35.2
				C131.7,186.4,128,187.4,124.1,187.4z"/>
		</g>
		<g>
			<path class="st0" d="M202.4,540.7c-0.6,0-1.2-0.2-1.8-0.5l-65.4-37.8c-3.7-2.2-6.1-6.2-6.1-10.5v-75.5c0-2.2,1.9-3.6,3.6-3.6
				c0.6,0,1.2,0.2,1.8,0.5l65,37.5c4,2.3,6.5,6.6,6.5,11.2v75C206,539.3,204.1,540.7,202.4,540.7z"/>
			<g>
				<path class="st0" d="M119.9,308.2c-2.8,0.6-5.4,1.5-7.9,2.9l-59,34c-1.6,0.9-1.8,2.5-1.8,3.1c0,0.6,0.2,2.2,1.8,3.1l60.5,34.9
					c2,1.1,4.1,1.9,6.4,2.4V308.2z"/>
			</g>
		</g>
		<g>
			<path class="st0" d="M289,589.9c-0.6,0-1.2-0.2-1.8-0.5l-65.4-37.8c-3.7-2.2-6.1-6.2-6.1-10.5v-75.5c0-2.2,1.9-3.6,3.6-3.6
				c0.6,0,1.2,0.2,1.8,0.5l65,37.5c4,2.3,6.5,6.6,6.5,11.2v75C292.6,588.5,290.7,589.9,289,589.9z"/>
			<path class="st0" d="M305.7,589.9c-1.7,0-3.6-1.4-3.6-3.6v-75c0-4.6,2.5-8.9,6.5-11.2l65.5-37.8c0.6-0.3,1.2-0.5,1.8-0.5
				c1.7,0,3.6,1.4,3.6,3.6v75.5c0,4.3-2.3,8.4-6.1,10.5l-65.9,38.1C306.9,589.7,306.3,589.9,305.7,589.9z"/>
		</g>
		<g>
			<path class="st0" d="M462.2,284.2c-0.6,0-1.2-0.2-1.8-0.5L395,246c-3.7-2.2-6.1-6.2-6.1-10.5V160c0-2.2,1.9-3.6,3.6-3.6
				c0.6,0,1.2,0.2,1.8,0.5l65,37.5c4,2.3,6.5,6.6,6.5,11.2v75C465.8,282.8,463.9,284.2,462.2,284.2z"/>
			<path class="st0" d="M470.5,186.5c-3.8,0-7.6-1-10.9-2.9l-60.5-34.9c-1.6-0.9-1.8-2.5-1.8-3.1c0-0.6,0.2-2.2,1.8-3.1l59-34
				c4-2.3,8.5-3.5,13-3.5c4.6,0,9.1,1.2,13,3.5l58.4,33.7c1.6,0.9,1.8,2.5,1.8,3.1c0,0.6-0.2,2.2-1.8,3.1l-61.1,35.2
				C478.2,185.5,474.4,186.5,470.5,186.5z"/>
			<path class="st0" d="M478.9,284.2c-1.7,0-3.6-1.4-3.6-3.6v-75c0-4.6,2.5-8.9,6.5-11.2l65.5-37.8c0.6-0.3,1.2-0.5,1.8-0.5
				c1.7,0,3.6,1.4,3.6,3.6v75.5c0,4.3-2.3,8.4-6.1,10.5l-65.9,38.1C480.1,284.1,479.5,284.2,478.9,284.2z"/>
		</g>
		<g>
			<path class="st0" d="M286.8,396l-60.5-35l-9.9,8.3v67.8c0,4.3,2.3,8.4,6.1,10.5l65.4,37.8c0.6,0.3,1.2,0.5,1.8,0.5
				c1.7,0,3.6-1.4,3.6-3.6v-75C293.3,402.6,290.8,398.3,286.8,396z"/>
			<path class="st0" d="M306.4,485.9c-1.7,0-3.6-1.4-3.6-3.6v-75c0-4.6,2.5-8.9,6.5-11.2l65.5-37.8c0.6-0.3,1.2-0.5,1.8-0.5
				c1.7,0,3.6,1.4,3.6,3.6v75.5c0,4.3-2.3,8.4-6.1,10.5l-65.9,38.1C307.6,485.8,307,485.9,306.4,485.9z"/>
		</g>
		<g>
			<path class="st0" d="M131,205.1c0,0.3-0.1,0.6-0.1,0.9v75c0,2.2,1.9,3.6,3.6,3.6c0.6,0,1.2-0.2,1.8-0.5l65.8-38L131,205.1z"/>
			<path class="st0" d="M42.7,155c0,0.3-0.1,0.6-0.1,0.9v75c0,2.2,1.9,3.6,3.6,3.6c0.6,0,1.2-0.2,1.8-0.5l65.8-38L42.7,155z"/>
			<path class="st0" d="M206.7,257.5c-2.8,0.6-5.4,1.5-7.9,2.9l-59,34c-1.6,0.9-1.8,2.5-1.8,3.1c0,0.6,0.2,2.2,1.8,3.1l60.5,34.9
				c2,1.1,4.1,1.9,6.4,2.4V257.5z"/>
			<path class="st0" d="M118.8,205.2c-2.8,0.6-5.4,1.5-7.9,2.9l-59,34c-1.6,0.9-1.8,2.5-1.8,3.1c0,0.6,0.2,2.2,1.8,3.1l60.5,34.9
				c2,1.1,4.1,1.9,6.4,2.4V205.2z"/>
			<path class="st0" d="M210.7,237.5c-3.8,0-7.6-1-10.9-2.9l-60.5-34.9c-1.6-0.9-1.8-2.5-1.8-3.1c0-0.6,0.2-2.2,1.8-3.1l59-34
				c4-2.3,8.5-3.5,13-3.5c4.6,0,9.1,1.2,13,3.5l58.4,33.7c1.6,0.9,1.8,2.5,1.8,3.1c0,0.6-0.2,2.2-1.8,3.1l-61.1,35.2
				C218.3,236.5,214.6,237.5,210.7,237.5z"/>
		</g>
		<g>
			<path class="st0" d="M286.1,294.6l-65-37.5c-0.6-0.3-1.2-0.5-1.8-0.5c-1.7,0-3.6,1.4-3.6,3.6v75.5c0,4.3,2.3,8.4,6.1,10.5
				l1.1,0.6l17-14.3l-8.8-10.5l39.9-7l-13.8,38l-8.8-10.5l-13.4,11.2l52.2,30.2c0.6,0.3,1.2,0.5,1.8,0.5c1.7,0,3.6-1.4,3.6-3.6v-75
				C292.6,301.2,290.1,296.9,286.1,294.6z"/>
			<path class="st0" d="M305.7,384.5c-1.7,0-3.6-1.4-3.6-3.6v-75c0-4.6,2.5-8.9,6.5-11.2l65.5-37.8c0.6-0.3,1.2-0.5,1.8-0.5
				c1.7,0,3.6,1.4,3.6,3.6v75.5c0,4.3-2.3,8.4-6.1,10.5L307.5,384C306.9,384.3,306.3,384.5,305.7,384.5z"/>
			<path class="st0" d="M297.3,286.7c-3.8,0-7.6-1-10.9-2.9l-60.5-34.9c-1.6-0.9-1.8-2.5-1.8-3.1c0-0.6,0.2-2.2,1.8-3.1l59-34
				c4-2.3,8.5-3.5,13-3.5c4.6,0,9.1,1.2,13,3.5l58.4,33.7c1.6,0.9,1.8,2.5,1.8,3.1c0,0.6-0.2,2.2-1.8,3.1l-61.1,35.2
				C305,285.7,301.2,286.7,297.3,286.7z"/>
		</g>
		<g>
			<path class="st0" d="M159.9,366.1l17,19.4l30.2-25.3v-0.5c0-4.6-2.5-8.9-6.5-11.2l-65-37.5c-0.6-0.3-1.2-0.5-1.8-0.5
				c-1.7,0-3.6,1.4-3.6,3.6v75.5c0,2.4,0.8,4.7,2.1,6.7L159.9,366.1z"/>
			<path class="st0" d="M175.4,403.8l-15.8-18.1l-16.7,18.2l58.7,33.9c0.6,0.3,1.2,0.5,1.8,0.5c1.7,0,3.6-1.4,3.6-3.6v-57.5
				L175.4,403.8z"/>
		</g>
	</g>
</g>
</svg>
